<svg xmlns="http://www.w3.org/2000/svg" xmlns:xlink="http://www.w3.org/1999/xlink" viewBox="0,0,256,256" width="200px" height="200px"><g fill="none" fill-rule="nonzero" stroke="none" stroke-width="1" stroke-linecap="butt" stroke-linejoin="miter" stroke-miterlimit="10" stroke-dasharray="" stroke-dashoffset="0" font-family="none" font-weight="none" font-size="none" text-anchor="none" style="mix-blend-mode: normal"><g transform="scale(2.56,2.56)"><path d="M71,19h-42v66l21,-13.1l21,13.1z" fill="#f15b6c"></path><path d="M68,22.5v56.2c0,0.4 -0.4,0.6 -0.8,0.4l-17.2,-10.8l-17.2,10.8c-0.3,0.2 -0.8,0 -0.8,-0.4v-56.2c0,-0.3 0.2,-0.5 0.5,-0.5h35c0.3,0 0.5,0.2 0.5,0.5z" fill="#f37e98"></path><path d="M50,28c-6.1,0 -11,4.9 -11,11c0,6.1 4.9,11 11,11v0c6.1,0 11,-4.9 11,-11c0,-6.1 -4.9,-11 -11,-11z" fill="#fef6aa"></path><path d="M55.8,38.3l-2.3,2.3l0.5,3.4c0.1,0.3 -0.1,0.6 -0.3,0.8c-0.1,0.2 -0.5,0.2 -0.8,0.1l-2.9,-1.6l-2.8,1.5c-0.1,0.1 -0.3,0.1 -0.4,0.1c-0.2,0 -0.3,-0.1 -0.5,-0.2c-0.3,-0.2 -0.4,-0.5 -0.3,-0.8l0.5,-3.3l-2.3,-2.3c-0.2,-0.2 -0.3,-0.5 -0.2,-0.8c0.1,-0.3 0.3,-0.5 0.6,-0.6l3.2,-0.5l1.4,-3c0.3,-0.6 1.2,-0.6 1.5,0l1.4,3l3.2,0.5c0.3,0 0.5,0.3 0.7,0.5c0,0.4 0,0.7 -0.2,0.9z" fill="#f37e98"></path><g fill="#1f212b"><path d="M67.5,35c-0.3,0 -0.5,-0.2 -0.5,-0.5v-11.5h-25.5c-0.3,0 -0.5,-0.2 -0.5,-0.5c0,-0.3 0.2,-0.5 0.5,-0.5h26c0.3,0 0.5,0.2 0.5,0.5v12c0,0.3 -0.2,0.5 -0.5,0.5zM32.5,79.2c-0.1,0 -0.2,0 -0.2,-0.1c-0.2,-0.1 -0.3,-0.2 -0.3,-0.4v-51.2c0,-0.3 0.2,-0.5 0.5,-0.5c0.3,0 0.5,0.2 0.5,0.5v50.3l3.2,-2c0.2,-0.1 0.5,-0.1 0.7,0.2c0.1,0.2 0.1,0.5 -0.2,0.7l-4,2.5c0,0 -0.1,0 -0.2,0zM67.5,79.2c-0.1,0 -0.2,0 -0.3,-0.1l-17.2,-10.8l-7.2,4.5c-0.2,0.1 -0.5,0.1 -0.7,-0.2c-0.1,-0.2 -0.1,-0.5 0.2,-0.7l7.5,-4.7c0.2,-0.1 0.4,-0.1 0.5,0l16.7,10.6v-30.3c0,-0.3 0.2,-0.5 0.5,-0.5c0.3,0 0.5,0.2 0.5,0.5v31.2c0,0.2 -0.1,0.3 -0.3,0.4c0,0.1 -0.1,0.1 -0.2,0.1zM67.5,45c-0.3,0 -0.5,-0.2 -0.5,-0.5v-3c0,-0.3 0.2,-0.5 0.5,-0.5c0.3,0 0.5,0.2 0.5,0.5v3c0,0.3 -0.2,0.5 -0.5,0.5zM67.5,39c-0.3,0 -0.5,-0.2 -0.5,-0.5v-1c0,-0.3 0.2,-0.5 0.5,-0.5c0.3,0 0.5,0.2 0.5,0.5v1c0,0.3 -0.2,0.5 -0.5,0.5z"></path><path d="M71,86c-0.2,0 -0.4,-0.1 -0.5,-0.2l-20.5,-12.8l-20.5,12.8c-0.3,0.2 -0.7,0.2 -1,0c-0.3,-0.1 -0.5,-0.4 -0.5,-0.8v-66c0,-0.6 0.4,-1 1,-1h42c0.6,0 1,0.4 1,1v66c0,0.4 -0.2,0.7 -0.5,0.9c-0.2,0.1 -0.3,0.1 -0.5,0.1zM50,70.9c0.2,0 0.4,0.1 0.5,0.2l19.5,12.1v-63.2h-40v63.2l19.5,-12.2c0.1,-0.1 0.3,-0.1 0.5,-0.1z"></path><path d="M50,50c-6.1,0 -11,-4.9 -11,-11c0,-2 0.5,-4 1.6,-5.7c0.1,-0.2 0.4,-0.3 0.7,-0.2c0.2,0.1 0.3,0.5 0.2,0.7c-1,1.6 -1.5,3.4 -1.5,5.2c0,5.5 4.5,10 10,10c5.5,0 10,-4.5 10,-10c0,-5.5 -4.5,-10 -10,-10c-2.3,0 -4.4,0.7 -6.2,2.1c-0.2,0.2 -0.5,0.1 -0.7,-0.1c-0.2,-0.2 -0.1,-0.5 0.1,-0.7c2,-1.5 4.3,-2.4 6.8,-2.4c6.1,0 11,4.9 11,11c0,6.1 -4.9,11.1 -11,11.1z"></path><path d="M46.8,45c-0.2,0 -0.3,-0.1 -0.5,-0.2c-0.3,-0.2 -0.4,-0.5 -0.3,-0.8l0.5,-3.3l-2.3,-2.3c-0.2,-0.2 -0.3,-0.5 -0.2,-0.8c0.1,-0.3 0.3,-0.5 0.6,-0.6l3.2,-0.5l1.4,-3c0.3,-0.6 1.2,-0.6 1.4,0l1.4,3l3.2,0.5c0.3,0.1 0.5,0.3 0.6,0.5c0.1,0.3 0,0.6 -0.2,0.8l-2.3,2.3l0.7,3.4c0.1,0.3 -0.1,0.6 -0.3,0.8c-0.1,0.1 -0.5,0.2 -0.8,0.1l-3.1,-1.7c-0.2,-0.1 -0.3,-0.4 -0.2,-0.7c0.1,-0.2 0.4,-0.3 0.7,-0.2l2.7,1.5l-0.5,-3.2c0,-0.2 0,-0.3 0.1,-0.4l2.2,-2.3l-3.1,-0.5c-0.2,0 -0.3,-0.1 -0.4,-0.3l-1.3,-2.8l-1.4,2.9c-0.1,0.2 -0.2,0.3 -0.4,0.3l-3.1,0.5l2.2,2.3c0.1,0.1 0.2,0.3 0.1,0.4l-0.4,3.2c0.1,0 0.3,0.1 0.3,0.3c0.1,0.2 0,0.5 -0.2,0.7c0,0 -0.2,0.1 -0.3,0.1zM53,44.2v0zM47,44.2v0zM46.7,44v0zM55.1,37.6v0zM44.9,37.6v0z"></path></g></g></g></svg>