<svg xmlns="http://www.w3.org/2000/svg" xmlns:xlink="http://www.w3.org/1999/xlink" viewBox="0 0 100 100" width="120px" height="120px"><style type="text/css">	.st0{fill:#c74343;}	.st1{fill:#c74343;}	.st2{fill:#c74343;}	.st3{fill:#c74343;}	.st4{fill:#1F212B;}</style><g id="Base">	<path class="st0" d="M71,19H29v66l21-13.1L71,85V19z"/>	<path class="st1" d="M68,22.5v56.2c0,0.4-0.4,0.6-0.8,0.4L50,68.3L32.8,79.1c-0.3,0.2-0.8,0-0.8-0.4V22.5c0-0.3,0.2-0.5,0.5-0.5h35		C67.8,22,68,22.2,68,22.5z"/></g><g id="Circle">	<path class="st2" d="M50,28c-6.1,0-11,4.9-11,11s4.9,11,11,11l0,0c6.1,0,11-4.9,11-11S56.1,28,50,28z"/></g><g id="Star">	<path class="st3" d="M55.8,38.3l-2.3,2.3L54,44c0.1,0.3-0.1,0.6-0.3,0.8c-0.1,0.2-0.5,0.2-0.8,0.1L50,43.3l-2.8,1.5		c-0.1,0.1-0.3,0.1-0.4,0.1c-0.2,0-0.3-0.1-0.5-0.2c-0.3-0.2-0.4-0.5-0.3-0.8l0.5-3.3l-2.3-2.3c-0.2-0.2-0.3-0.5-0.2-0.8		c0.1-0.3,0.3-0.5,0.6-0.6l3.2-0.5l1.4-3c0.3-0.6,1.2-0.6,1.5,0l1.4,3l3.2,0.5c0.3,0,0.5,0.3,0.7,0.5C56,37.8,56,38.1,55.8,38.3z"/></g><g id="Layer_1">	<path class="st4" d="M67.5,35c-0.3,0-0.5-0.2-0.5-0.5V23H41.5c-0.3,0-0.5-0.2-0.5-0.5s0.2-0.5,0.5-0.5h26c0.3,0,0.5,0.2,0.5,0.5v12		C68,34.8,67.8,35,67.5,35z M32.5,79.2c-0.1,0-0.2,0-0.2-0.1C32.1,79,32,78.9,32,78.7V27.5c0-0.3,0.2-0.5,0.5-0.5s0.5,0.2,0.5,0.5		v50.3l3.2-2c0.2-0.1,0.5-0.1,0.7,0.2c0.1,0.2,0.1,0.5-0.2,0.7l-4,2.5C32.7,79.2,32.6,79.2,32.5,79.2z M67.5,79.2		c-0.1,0-0.2,0-0.3-0.1L50,68.3l-7.2,4.5c-0.2,0.1-0.5,0.1-0.7-0.2c-0.1-0.2-0.1-0.5,0.2-0.7l7.5-4.7c0.2-0.1,0.4-0.1,0.5,0L67,77.8		V47.5c0-0.3,0.2-0.5,0.5-0.5s0.5,0.2,0.5,0.5v31.2c0,0.2-0.1,0.3-0.3,0.4C67.7,79.2,67.6,79.2,67.5,79.2z M67.5,45		c-0.3,0-0.5-0.2-0.5-0.5v-3c0-0.3,0.2-0.5,0.5-0.5s0.5,0.2,0.5,0.5v3C68,44.8,67.8,45,67.5,45z M67.5,39c-0.3,0-0.5-0.2-0.5-0.5v-1		c0-0.3,0.2-0.5,0.5-0.5s0.5,0.2,0.5,0.5v1C68,38.8,67.8,39,67.5,39z"/>	<g>		<path class="st4" d="M71,86c-0.2,0-0.4-0.1-0.5-0.2L50,73L29.5,85.8c-0.3,0.2-0.7,0.2-1,0C28.2,85.7,28,85.4,28,85V19			c0-0.6,0.4-1,1-1h42c0.6,0,1,0.4,1,1v66c0,0.4-0.2,0.7-0.5,0.9C71.3,86,71.2,86,71,86z M50,70.9c0.2,0,0.4,0.1,0.5,0.2L70,83.2V20			H30v63.2L49.5,71C49.6,70.9,49.8,70.9,50,70.9z"/>	</g>	<g>		<path class="st4" d="M50,50c-6.1,0-11-4.9-11-11c0-2,0.5-4,1.6-5.7c0.1-0.2,0.4-0.3,0.7-0.2c0.2,0.1,0.3,0.5,0.2,0.7			C40.5,35.4,40,37.2,40,39c0,5.5,4.5,10,10,10s10-4.5,10-10s-4.5-10-10-10c-2.3,0-4.4,0.7-6.2,2.1c-0.2,0.2-0.5,0.1-0.7-0.1			c-0.2-0.2-0.1-0.5,0.1-0.7c2-1.5,4.3-2.4,6.8-2.4c6.1,0,11,4.9,11,11S56.1,50,50,50z"/>	</g>	<g>		<path class="st4" d="M46.8,45c-0.2,0-0.3-0.1-0.5-0.2c-0.3-0.2-0.4-0.5-0.3-0.8l0.5-3.3l-2.3-2.3c-0.2-0.2-0.3-0.5-0.2-0.8			c0.1-0.3,0.3-0.5,0.6-0.6l3.2-0.5l1.4-3c0.3-0.6,1.2-0.6,1.4,0l1.4,3l3.2,0.5c0.3,0.1,0.5,0.3,0.6,0.5c0.1,0.3,0,0.6-0.2,0.8			l-2.3,2.3L54,44c0.1,0.3-0.1,0.6-0.3,0.8c-0.1,0.1-0.5,0.2-0.8,0.1l-3.1-1.7c-0.2-0.1-0.3-0.4-0.2-0.7c0.1-0.2,0.4-0.3,0.7-0.2			l2.7,1.5l-0.5-3.2c0-0.2,0-0.3,0.1-0.4l2.2-2.3l-3.1-0.5c-0.2,0-0.3-0.1-0.4-0.3L50,34.3l-1.4,2.9c-0.1,0.2-0.2,0.3-0.4,0.3			l-3.1,0.5l2.2,2.3c0.1,0.1,0.2,0.3,0.1,0.4L47,43.9c0.1,0,0.3,0.1,0.3,0.3c0.1,0.2,0,0.5-0.2,0.7C47.1,44.9,46.9,45,46.8,45z			 M53,44.2C53,44.2,53,44.2,53,44.2L53,44.2z M47,44.2L47,44.2C47,44.2,47,44.2,47,44.2z M46.7,44C46.7,44,46.7,44,46.7,44			C46.7,44,46.7,44,46.7,44z M55.1,37.6C55.1,37.6,55.1,37.6,55.1,37.6L55.1,37.6z M44.9,37.6L44.9,37.6			C44.9,37.6,44.9,37.6,44.9,37.6z"/>	</g></g></svg>