<svg xmlns="http://www.w3.org/2000/svg" xmlns:xlink="http://www.w3.org/1999/xlink" viewBox="0,0,256,256" width="200px" height="200px"><g fill="none" fill-rule="nonzero" stroke="none" stroke-width="1" stroke-linecap="butt" stroke-linejoin="miter" stroke-miterlimit="10" stroke-dasharray="" stroke-dashoffset="0" font-family="none" font-weight="none" font-size="none" text-anchor="none" style="mix-blend-mode: normal"><g transform="scale(2.56,2.56)"><path d="M71,19h-42v66l21,-13.136l21,13.136z" fill="#f15b6c"></path><path d="M68,22.5v56.177c0,0.393 -0.432,0.632 -0.765,0.424l-17.235,-10.781l-17.235,10.781c-0.333,0.209 -0.765,-0.031 -0.765,-0.424v-56.177c0,-0.276 0.224,-0.5 0.5,-0.5h35c0.276,0 0.5,0.224 0.5,0.5z" fill="#f37e98"></path><path d="M50,28c-6.07513,0 -11,4.92487 -11,11c0,6.07513 4.92487,11 11,11c6.07513,0 11,-4.92487 11,-11c0,-6.07513 -4.92487,-11 -11,-11z" fill="#f37e98"></path><path d="M55.77,38.35l-2.31,2.35l0.54,3.31c0.06,0.3 -0.06,0.6 -0.31,0.79c-0.13,0.15 -0.54,0.23 -0.84,0.08l-2.85,-1.56l-2.83,1.55c-0.11,0.07 -0.25,0.1 -0.38,0.1c-0.17,0 -0.34,-0.06 -0.48,-0.16c-0.25,-0.2 -0.37,-0.5 -0.31,-0.81l0.54,-3.3l-2.31,-2.35c-0.2,-0.21 -0.28,-0.53 -0.2,-0.81c0.12,-0.32 0.35,-0.52 0.64,-0.57l3.19,-0.48l1.41,-3c0.29,-0.57 1.18,-0.56 1.45,-0.01l1.42,3.01l3.17,0.48c0.31,0.05 0.54,0.25 0.65,0.54c0.09,0.31 0.01,0.63 -0.19,0.84z" fill="#f37e98"></path><path d="M67.5,35c-0.276,0 -0.5,-0.224 -0.5,-0.5v-11.5h-25.5c-0.276,0 -0.5,-0.224 -0.5,-0.5c0,-0.276 0.224,-0.5 0.5,-0.5h26c0.276,0 0.5,0.224 0.5,0.5v12c0,0.276 -0.224,0.5 -0.5,0.5zM32.5,79.18c-0.083,0 -0.167,-0.021 -0.242,-0.062c-0.159,-0.089 -0.258,-0.257 -0.258,-0.438v-51.18c0,-0.276 0.224,-0.5 0.5,-0.5c0.276,0 0.5,0.224 0.5,0.5v50.277l3.235,-2.021c0.234,-0.147 0.543,-0.075 0.689,0.159c0.146,0.233 0.075,0.542 -0.159,0.688l-4,2.5c-0.081,0.051 -0.173,0.077 -0.265,0.077zM67.5,79.18c-0.092,0 -0.184,-0.025 -0.265,-0.076l-17.235,-10.774l-7.235,4.522c-0.234,0.147 -0.543,0.076 -0.689,-0.159c-0.146,-0.233 -0.075,-0.542 0.159,-0.688l7.5,-4.688c0.162,-0.102 0.368,-0.102 0.53,0l16.735,10.46v-30.277c0,-0.276 0.224,-0.5 0.5,-0.5c0.276,0 0.5,0.224 0.5,0.5v31.18c0,0.182 -0.099,0.35 -0.258,0.438c-0.075,0.041 -0.159,0.062 -0.242,0.062zM67.5,45c-0.276,0 -0.5,-0.224 -0.5,-0.5v-3c0,-0.276 0.224,-0.5 0.5,-0.5c0.276,0 0.5,0.224 0.5,0.5v3c0,0.276 -0.224,0.5 -0.5,0.5zM67.5,39c-0.276,0 -0.5,-0.224 -0.5,-0.5v-1c0,-0.276 0.224,-0.5 0.5,-0.5c0.276,0 0.5,0.224 0.5,0.5v1c0,0.276 -0.224,0.5 -0.5,0.5z" fill="#1f212b"></path><g fill="#1f212b"><path d="M71,86c-0.185,0 -0.369,-0.051 -0.53,-0.152l-20.47,-12.805l-20.47,12.805c-0.308,0.193 -0.697,0.203 -1.015,0.027c-0.318,-0.177 -0.515,-0.512 -0.515,-0.875v-66c0,-0.553 0.448,-1 1,-1h42c0.552,0 1,0.447 1,1v66c0,0.363 -0.197,0.698 -0.516,0.875c-0.151,0.083 -0.317,0.125 -0.484,0.125zM50,70.863c0.184,0 0.368,0.051 0.53,0.152l19.47,12.18v-63.195h-40v63.195l19.47,-12.18c0.162,-0.101 0.346,-0.152 0.53,-0.152z"></path></g><g fill="#1f212b"><path d="M50,50c-6.065,0 -11,-4.935 -11,-11c0,-2.003 0.543,-3.963 1.572,-5.669c0.142,-0.238 0.449,-0.312 0.687,-0.171c0.236,0.143 0.312,0.45 0.17,0.687c-0.935,1.55 -1.429,3.333 -1.429,5.153c0,5.514 4.486,10 10,10c5.514,0 10,-4.486 10,-10c0,-5.514 -4.486,-10 -10,-10c-2.271,0 -4.412,0.742 -6.19,2.146c-0.215,0.171 -0.531,0.134 -0.702,-0.083c-0.171,-0.217 -0.134,-0.531 0.083,-0.702c1.955,-1.545 4.31,-2.361 6.809,-2.361c6.065,0 11,4.935 11,11c0,6.065 -4.935,11 -11,11z"></path></g><g fill="#1f212b"><path d="M46.792,44.967c-0.171,0 -0.342,-0.053 -0.48,-0.157c-0.25,-0.195 -0.367,-0.503 -0.312,-0.808l0.541,-3.304l-2.308,-2.349c-0.207,-0.207 -0.286,-0.527 -0.199,-0.814c0.113,-0.314 0.344,-0.512 0.64,-0.566l3.184,-0.48l1.415,-3.002c0.282,-0.566 1.177,-0.556 1.449,-0.011l1.419,3.013l3.167,0.478c0.313,0.058 0.544,0.255 0.649,0.544c0.095,0.312 0.016,0.633 -0.194,0.843l-2.305,2.346l0.542,3.312c0.054,0.297 -0.063,0.604 -0.308,0.795c-0.137,0.146 -0.544,0.225 -0.846,0.077l-3.088,-1.693c-0.242,-0.133 -0.331,-0.437 -0.198,-0.679c0.132,-0.242 0.436,-0.332 0.679,-0.198l2.713,1.488l-0.522,-3.19c-0.025,-0.157 0.025,-0.317 0.137,-0.432l2.237,-2.277l-3.077,-0.463c-0.165,-0.024 -0.307,-0.13 -0.378,-0.281l-1.349,-2.87l-1.351,2.867c-0.071,0.151 -0.213,0.257 -0.378,0.281l-3.077,0.464l2.237,2.276c0.112,0.114 0.163,0.274 0.137,0.432l-0.545,3.332c0.142,0.026 0.271,0.113 0.347,0.25c0.133,0.241 0.045,0.546 -0.196,0.679c-0.118,0.066 -0.25,0.097 -0.382,0.097zM53.015,44.175c0,0.002 0,0.004 0,0.005zM46.986,44.167v0.005c0,-0.002 0,-0.003 0,-0.005zM46.691,43.994c0,0 0,0.001 0,0c0,0.001 0,0 0,0zM55.054,37.648c-0.001,0.001 -0.002,0.002 -0.003,0.003zM44.943,37.646l0.003,0.003c0,-0.002 -0.002,-0.003 -0.003,-0.003z"></path></g></g></g></svg>